<svg width="24" height="24" viewBox="0 0 24 24" fill="none" xmlns="http://www.w3.org/2000/svg">
  <path d="M12.0142 1.9989C6.49116 1.9989 2.01416 6.47589 2.01416 11.9989C2.01416 17.5219 6.49116 21.9989 12.0142 21.9989C17.0941 21.9989 21.3581 18.1909 21.9521 13.1869C22.0161 12.6379 21.6251 12.1269 21.0761 12.0609C20.5281 11.9969 20.0161 12.3879 19.9521 12.9369C19.4771 16.9369 16.0781 19.9989 12.0142 19.9989C7.59615 19.9989 4.01416 16.4169 4.01416 11.9989C4.01416 7.58089 7.59615 3.9989 12.0142 3.9989C12.9372 3.9989 13.8512 4.16589 14.7022 4.46789C15.2222 4.65189 15.7672 4.36289 15.9522 3.84289C16.1362 3.32189 15.8781 2.74591 15.3581 2.56091C14.2941 2.18391 13.1651 1.9989 12.0142 1.9989ZM21.0141 3.9989C20.7581 3.9989 20.4901 4.0889 20.2951 4.2799L11.5761 12.8739C11.3191 13.1269 11.0601 13.0779 10.8581 12.7799L9.85815 11.3109C9.55215 10.8599 8.91016 10.7289 8.45216 11.0299C7.99316 11.3309 7.86416 11.9539 8.17016 12.4049L9.17016 13.8739C10.0712 15.2029 11.8341 15.3789 12.9831 14.2489L21.7331 5.68688C22.1231 5.30288 22.1231 4.6639 21.7331 4.2799C21.5381 4.0879 21.2701 3.9989 21.0141 3.9989Z" fill="#0085FF"/>
</svg>
