<?xml version="1.0" encoding="UTF-8"?>
<svg id="Layer_2" data-name="Layer 2" xmlns="http://www.w3.org/2000/svg" viewBox="0 0 36.62 36.03">
  <defs>
    <style>
      .cls-1 {
        fill: #fff;
        stroke-width: 0px;
      }
    </style>
  </defs>
  <g id="Layer_6" data-name="Layer 6">
    <ellipse class="cls-1" cx="4.01" cy="8.25" rx="3.75" ry="4.25" transform="translate(-4.66 5.25) rotate(-45)"/>
    <circle class="cls-1" cx="13.26" cy="4" r="4"/>
    <circle class="cls-1" cx="24.26" cy="4" r="4"/>
    <ellipse class="cls-1" cx="32.81" cy="9.57" rx="4" ry="3.62" transform="translate(3.21 26.66) rotate(-46.26)"/>
    <path class="cls-1" d="M18.6,9.29c-.56-.19-1.18-.14-1.7.15-3.38,1.85-10.65,3.56-12.63,14.1-.32,1.71-1.23,4.42,0,7.27,1.24,2.85,4.35,5.55,7.24,5.19,3.02-.38,3.81-3.13,6.74-3,3.53.15,3,3,7.75,3,3.51,0,7.02-5.69,7.24-10.38.3-6.42-5.46-13.12-14.64-16.32Z"/>
  </g>
</svg>