<svg width="292" height="160" viewBox="0 0 292 160" fill="none" xmlns="http://www.w3.org/2000/svg">
  <g clip-path="url(#a)">
    <path d="M274.58 23.179H17.42C7.8 23.179 0 30.962 0 40.563v81.126c0 9.601 7.8 17.384 17.42 17.384h257.16c9.621 0 17.42-7.783 17.42-17.384V40.563c0-9.601-7.799-17.384-17.42-17.384" fill="#E6E6E6"/>
    <path d="m140.127 155.662-23.559-40.761c-3.351-5.795.829-13.014 7.532-13.014h47.152c6.702 0 10.883 7.219 7.532 13.014l-23.559 40.761c-3.352 5.795-11.713 5.795-15.065 0zM49.64 23.179S49.773 0 69.682 0s19.909 23.179 19.909 23.179m112.022 1.689S201.746 0 221.655 0s19.909 24.868 19.909 24.868" fill="#E6E6E6"/>
    <path d="M56.41 22.914s-.167-15.596 13.206-15.96 13.339 16.192 13.339 16.192l-26.546-.265zm152.635.265s-1.46-17.484 12.543-17.02 12.609 17.02 12.609 17.02z" fill="#F2F2F2"/>
    <path d="M112.951 23.179s-.166 19.867 8.295 19.867 8.163-19.867 8.163-19.867zm26.413 0s0 19.867 8.295 19.867 8.296-19.867 8.296-19.867zm27.508 0s0 19.867 8.295 19.867 8.295-19.867 8.295-19.867zM53.849 89.005l-.703-.615v-4.424h.996v4.101h5.36v.909zm2.285 2.812H51.24v-1.054h10.313v1.113h-4.395v3.603h-1.025zm12.1-6.767-2.198 7.558-.996-.205 2.021-6.943h-4.13l.088-1.143h4.746zm2.314 8.76V83.79h1.142v4.482h2.52v.967h-2.578v4.57zm17.08-8.438-.088.908h-6.65v-1.26h2.959v-1.728l1.054.088v1.875zm-1.64 3.281q0-.483-.425-.864-.411-.395-1.304-.395-.879 0-1.333.337-.454.336-.454.85 0 .219.102.453.117.234.337.44.22.19.557.322.336.117.79.117.88 0 1.29-.366t.44-.894m-4.454-.029q0-.44.147-.82a1.75 1.75 0 0 1 .483-.674 2.35 2.35 0 0 1 .85-.454 4.3 4.3 0 0 1 1.245-.161q.718 0 1.216.205.512.19.835.498.336.307.483.688.16.381.161.747 0 .353-.132.703a1.9 1.9 0 0 1-.38.63 2.5 2.5 0 0 1-.63.498 2.9 2.9 0 0 1-.909.293l.088 2.447h4.483v1.084H79.22v-1.202h4.716l-.073-2.3a3 3 0 0 1-1.054-.278 2.6 2.6 0 0 1-.733-.527 2.2 2.2 0 0 1-.41-.674 2.1 2.1 0 0 1-.132-.703m9.17-.176q0-.513.117-1.098.132-.6.425-1.114a2.6 2.6 0 0 1 .82-.85q.513-.336 1.304-.336.747 0 1.26.337.513.336.82.85.322.511.454 1.113.132.585.132 1.098 0 .542-.132 1.143-.132.585-.454 1.084a2.5 2.5 0 0 1-.82.82q-.513.322-1.26.322t-1.26-.322a2.7 2.7 0 0 1-.835-.82 3.5 3.5 0 0 1-.44-1.084 5.3 5.3 0 0 1-.13-1.143m.967 0q0 .366.073.791a2.7 2.7 0 0 0 .264.791q.19.367.513.615.336.235.85.235.497 0 .82-.234.336-.25.527-.616.205-.366.278-.79.073-.426.073-.792t-.088-.79a2.7 2.7 0 0 0-.263-.792 1.65 1.65 0 0 0-.528-.6q-.322-.25-.82-.25-.527 0-.864.25a1.7 1.7 0 0 0-.513.6 2.7 2.7 0 0 0-.263.791q-.06.425-.06.791m6.826 5.362V83.79h1.143v2.256h2.548v.967H99.61v2.52h2.578v.995h-2.666v3.282zm10.195-9.229v.938h-2.021v1.845l2.9 2.666-.586.762-2.812-2.373-2.344 2.666-.732-.762 2.49-2.93V85.52h-2.344v-.967zm3.955-1.055v7.676h-1.054v-7.705zm-7.412 8.79v-.06h.967v1.231h5.449v-1.26l.938-.058v4.365h-6.621l-.615-.293zm6.504 3.427V94.25h-5.478v1.494zm3.633-2.783-.703-.703 2.519-3.633.206-3.193h.937v3.164l2.813 3.515-.528.704-2.929-3.223zm8.291 2.021-1.084-.087V84.376h1.201v4.512h2.227v.937h-2.344zm13.037-9.55-2.197 7.558-.996-.205 2.021-6.943h-4.131l.088-1.143h4.746zm2.783 7.763v-10.02h1.202v10.02zm10.694-5.771v-1.436h-3.633l.146 1.524zm-4.805-4.219h.967l.176 1.934h3.545l-.147-1.875.967-.059.322 5.215h-4.834l-.644-.44zm4.072 7.94v3.017h-.937v-3.017h-5.186l.059-.82h10.224v.702zm-3.574 5.01-.644-.499v-3.281h.908v2.783l6.65.147v.454q.015.175.015.264v.131a.3.3 0 0 1 .014.088zm11.836-10.723q0-.543.22-.967.234-.425.63-.703.395-.293.908-.44a4 4 0 0 1 1.084-.146q.571 0 1.069.176.513.16.894.468t.6.718q.22.41.22.894 0 .615-.249 1.054a2.2 2.2 0 0 1-.644.704 2.8 2.8 0 0 1-.894.41 4.3 4.3 0 0 1-.996.117 4.2 4.2 0 0 1-1.128-.147 2.9 2.9 0 0 1-.894-.454 2.3 2.3 0 0 1-.6-.732q-.22-.424-.22-.952m4.688 0a1 1 0 0 0-.147-.513 1.35 1.35 0 0 0-.381-.44 1.9 1.9 0 0 0-.6-.322 2 2 0 0 0-.747-.132q-.513.03-.879.162-.352.131-.572.336a1.3 1.3 0 0 0-.322.455 1.1 1.1 0 0 0-.102.454q0 .38.161.644.175.264.439.44.264.16.601.249.35.073.703.073.366 0 .688-.103.337-.117.586-.307.264-.19.41-.44.162-.263.162-.556m3.31 4.218h-10.312l.058-.82h10.225zm-8.408 1.407h6.973v3.222h-6.504v1.29h7.382v.761h-7.851l-.498-.293v-2.695h6.474v-1.436h-5.976zm13.623-3.662q0-.586.146-1.114.147-.527.469-.923.322-.395.82-.63.499-.234 1.202-.234.732 0 1.23.337.498.323.791.791.308.454.425.952.132.499.132.82 0 .396-.117.909-.103.498-.396.952a2.46 2.46 0 0 1-.791.762q-.498.307-1.304.307-.747 0-1.245-.278-.498-.279-.805-.703a3.1 3.1 0 0 1-.425-.952 4 4 0 0 1-.132-.996m.937 0q0 .468.132.834.132.352.366.601.236.249.528.396.308.146.644.16.733 0 1.187-.57.454-.572.454-1.553 0-.353-.117-.674a1.7 1.7 0 0 0-.337-.586 1.7 1.7 0 0 0-.527-.425 1.5 1.5 0 0 0-.66-.176q-.38 0-.688.176a1.7 1.7 0 0 0-.513.44 1.9 1.9 0 0 0-.337.63 2.7 2.7 0 0 0-.132.747m6.885-3.985h.996v3.135h2.285v.996h-2.285v4.541h-1.054zm-4.365 12.1V92.08l.996.176v2.695h5.303l.058.938h-5.947zm14.561-8.496 2.871-2.55.088-1.171h-2.754v-.879h6.24v.879h-2.461l-.088 1.201 2.842 2.344-.586.732-2.754-2.285-2.695 2.432zm4.042 2.11h4.483v1.024h-10.254v-1.113h4.717V86.69h.937zm-.439 4.394q1.303 0 1.963.424.674.412.674 1.216 0 .498-.22.835a1.7 1.7 0 0 1-.571.542 2.4 2.4 0 0 1-.791.308 4 4 0 0 1-.894.102 3.7 3.7 0 0 1-.952-.117 2.7 2.7 0 0 1-.776-.337 1.6 1.6 0 0 1-.513-.512 1.26 1.26 0 0 1-.176-.66q0-.79.601-1.289.6-.483 1.655-.512m3.193-.44h-6.152v-1.055h2.695l.147-1.347h1.025l-.146 1.465h2.431zm-1.464 1.992q-.044-.336-.455-.527a2.3 2.3 0 0 0-.937-.176q-.307 0-.601.044a2.6 2.6 0 0 0-.527.161q-.22.117-.366.279a.7.7 0 0 0-.132.424q0 .22.117.367a1 1 0 0 0 .322.234q.206.102.44.147.249.043.498.043.689 0 1.157-.234.484-.233.484-.674zm7.236-2.109-.908-.234 2.021-7.061h-3.662v-1.113h4.365l.381.908-.659 2.256h2.856v-3.428h.967v8.584l-.908.059v-4.22h-3.193zm6.943.352v-9.346h.996v9.258zm6.651-5.245q0-.176.029-.395a4 4 0 0 1 .117-.44q.088-.22.205-.424a1.3 1.3 0 0 1 .293-.352l-1.406-.176.117-.85 2.93.323.176-1.992.849.058-.146 2.022 2.519.264-.088.878-1.377-.117q.425.513.425 1.216 0 .6-.19 1.07a2.5 2.5 0 0 1-.498.79q-.308.323-.718.498a2 2 0 0 1-.835.176q-.703 0-1.172-.249a2.3 2.3 0 0 1-.747-.6 2.4 2.4 0 0 1-.395-.762 3 3 0 0 1-.103-.718q0-.146.015-.22m.966-.029a1.5 1.5 0 0 0 .337 1.172q.366.41 1.011.41.66 0 1.011-.44.366-.438.366-1.113 0-.747-.425-1.084a1.58 1.58 0 0 0-1.011-.337q-.512 0-.864.337-.351.338-.425 1.055m8.262-3.78h.996v7.003h-.996v-3.164h-1.67v2.783h-1.054v-6.592h1.054v2.842h1.67zm-6.943 12.071-.645-.732 2.285-2.344V91.67h.997v1.523l1.787 1.319.908-1.026.117-1.64h.938v1.611l2.314 2.314-.645.674-2.226-2.168-2.197 2.432-.616-.674.733-.82-1.582-1.143zm9.609-7.148q0-.513.117-1.099.132-.585.425-1.084.308-.513.82-.85.513-.337 1.304-.337.601 0 1.04.22.454.22.762.572.308.351.498.805.19.44.278.894l3.867-.03V84.67h.909v9.99h-.791v-5.39l-3.897-.03q-.014.528-.146 1.114-.132.57-.44 1.054-.307.484-.82.806-.513.308-1.26.308-.761 0-1.274-.323a2.6 2.6 0 0 1-.821-.805 3.5 3.5 0 0 1-.439-1.084 5.3 5.3 0 0 1-.132-1.128m.967 0q0 .366.073.79a2.7 2.7 0 0 0 .264.792q.19.366.513.615.336.234.849.234t.835-.234a1.76 1.76 0 0 0 .527-.615 2.7 2.7 0 0 0 .264-.791q.073-.425.073-.791t-.087-.791a2.7 2.7 0 0 0-.264-.791 1.65 1.65 0 0 0-.528-.601q-.321-.249-.82-.249-.526 0-.864.249a1.7 1.7 0 0 0-.513.6 2.7 2.7 0 0 0-.263.792 6 6 0 0 0-.059.79m13.652 4.57-.791 1.084-1.23-1.26.82-1.025zm-.468-2.08h-1.202v-7.442h1.202z" fill="#000"/>
  </g>
  <defs>
    <clipPath id="a">
      <path fill="#fff" d="M0 0h292v160H0z"/>
    </clipPath>
  </defs>
</svg>
