<svg width="19" height="20" viewBox="0 0 19 20" fill="none" xmlns="http://www.w3.org/2000/svg">
  <g clip-path="url(#a)">
    <path d="M17.887 10.17c0-.742-.06-1.284-.19-1.845h-8.47v3.348H14.2c-.1.832-.642 2.084-1.844 2.926l-.017.112 2.677 2.075.186.018c1.704-1.573 2.686-3.889 2.686-6.635" fill="#4285F4"/>
    <path d="M9.227 18.99c2.436 0 4.48-.803 5.974-2.186L12.354 14.6c-.761.531-1.783.902-3.127.902-2.385 0-4.41-1.573-5.131-3.748l-.106.009-2.784 2.155-.037.1a9.01 9.01 0 0 0 8.058 4.972" fill="#34A853"/>
    <path d="M4.096 11.753a5.6 5.6 0 0 1-.3-1.784c0-.622.11-1.223.29-1.784l-.005-.12-2.82-2.19-.092.045a9 9 0 0 0-.962 4.049c0 1.453.35 2.826.962 4.049z" fill="#FBBC05"/>
    <path d="M9.227 4.436c1.694 0 2.837.732 3.488 1.343l2.546-2.485C13.698 1.84 11.663.949 9.227.949a9.01 9.01 0 0 0-8.058 4.97l2.917 2.266c.732-2.175 2.756-3.749 5.141-3.749" fill="#EB4335"/>
  </g>
  <defs>
    <clipPath id="a">
      <path fill="#fff" d="M0 .949h18.103v18.103H0z"/>
    </clipPath>
  </defs>
</svg>
