<svg width="36" height="33" viewBox="0 0 36 33" fill="none" xmlns="http://www.w3.org/2000/svg">
  <g filter="url(#a)">
    <path d="M9.075 0C4.063 0 0 4.103 0 9.166c0 5.307 2.992 10.313 7.94 14.896 1.69 1.563 3.508 2.935 5.312 4.166.632.43 1.223.82 1.753 1.145.323.199.536.342.67.417.498.28 1.152.28 1.65 0 .134-.075.347-.218.67-.417a45 45 0 0 0 1.753-1.145c1.804-1.231 3.622-2.603 5.311-4.166C30.008 19.479 33 14.472 33 9.166 33 4.103 28.937 0 23.925 0c-2.847 0-5.626 1.567-7.373 3.853C14.847 1.527 12.078 0 9.075 0" fill="#756AB6"/>
  </g>
  <circle cx="11.5" cy="12.5" r="1.5" fill="#fff"/>
  <circle cx="21.5" cy="12.5" r="1.5" fill="#fff"/>
  <path d="m17 19 1.732-2.25h-3.464z" fill="#fff"/>
  <defs>
    <filter id="a" x="0" y="0" width="36" height="33" filterUnits="userSpaceOnUse" color-interpolation-filters="sRGB">
      <feFlood flood-opacity="0" result="BackgroundImageFix"/>
      <feColorMatrix in="SourceAlpha" values="0 0 0 0 0 0 0 0 0 0 0 0 0 0 0 0 0 0 127 0" result="hardAlpha"/>
      <feOffset dx="2" dy="2"/>
      <feGaussianBlur stdDeviation=".5"/>
      <feComposite in2="hardAlpha" operator="out"/>
      <feColorMatrix values="0 0 0 0 0 0 0 0 0 0 0 0 0 0 0 0 0 0 0.2 0"/>
      <feBlend in2="BackgroundImageFix" result="effect1_dropShadow_555_12001"/>
      <feBlend in="SourceGraphic" in2="effect1_dropShadow_555_12001" result="shape"/>
    </filter>
  </defs>
</svg>
