<?xml version="1.0" encoding="UTF-8"?>
<svg id="Layer_2" xmlns="http://www.w3.org/2000/svg" viewBox="0 0 48 48">
  <defs>
    <style>
      .cls-1 {
        fill: none;
      }

      .cls-1, .cls-2 {
        stroke-linecap: round;
        stroke-width: .5px;
      }

      .cls-1, .cls-2, .cls-3 {
        stroke: #000;
        stroke-miterlimit: 10;
      }

      .cls-4 {
        fill: #e6e6e6;
      }

      .cls-2, .cls-5 {
        fill: #f7f7f7;
      }

      .cls-6 {
        fill: #515151;
      }

      .cls-3 {
        fill: #e0ca46;
      }
    </style>
  </defs>
  <g id="Layer_17">
    <circle class="cls-3" cx="24" cy="24" r="23.5"/>
    <path class="cls-5" d="M16,13.59c-2.43,2.12-2.46,6.41-5.5,6.41-4.5,0-5.5-2.87-5.5-6.41,0-1.17.26-2.25,1-2.91,2.26-2.04,2-2.33,4.5-3.49,2.82-1.31,7.5,4.66,5.5,6.41Z"/>
    <path class="cls-5" d="M39.1,20.33c-2.75-1.93-6.63-.7-7.68-3.89-1.55-4.73.7-6.63,3.89-7.68,1.05-.35,2.12-.39,2.97.19,2.62,1.78,2.79,1.42,4.71,3.7,2.16,2.58-1.62,9.27-3.89,7.68Z"/>
    <ellipse class="cls-5" cx="24" cy="29.5" rx="20.59" ry="17.5"/>
    <path class="cls-4" d="M8.67,17.72s-1.62-3.87,1.6-6.02,4.85,1.72,4.85,1.72c0,0-3.11.93-6.46,4.31Z"/>
    <path class="cls-4" d="M33.23,13.87s2.42-3.22,5.66-.9.83,5.54.83,5.54c0,0-2.19-2.71-6.49-4.64Z"/>
    <path class="cls-6" d="M24.08,22h-.16c-.51,0-.92-.38-.92-.84v-8.32q0-.84,1-.84h.08q.92,0,.92.84v8.32c0,.46-.41.84-.92.84Z"/>
    <rect class="cls-6" x="20" y="14" width="8" height="2" rx="1" ry="1"/>
    <rect class="cls-6" x="20" y="17" width="8" height="2" rx="1" ry="1"/>
    <path class="cls-6" d="M11.03,27.57v.16c-.04.51-.35.9-.69.88l-6.14-.41q-.62-.04-.55-1.04v-.08q.07-.92.69-.88l6.14.41c.34.02.59.46.56.96Z"/>
    <path class="cls-6" d="M11,30.11v.16c-.02.51-.32.91-.67.9l-6.27-.22q-.63-.02-.6-1.02v-.08q.03-.92.67-.9l6.27.22c.35.01.62.44.6.94Z"/>
    <path class="cls-6" d="M43.87,27.89l-5.25.54c-.29.03-.56-.3-.59-.76v-.14c-.04-.44.17-.84.45-.86l5.25-.54q.53-.06.59.76v.07q.08.88-.45.93Z"/>
    <path class="cls-6" d="M44.04,31.01l-5.47.25c-.31.02-.56-.34-.57-.79v-.14c-.01-.44.23-.83.52-.83l5.47-.25q.55-.03.57.79v.07q.03.89-.52.91Z"/>
    <ellipse cx="23.5" cy="35" rx="1.5" ry="1"/>
    <line class="cls-1" x1="23.5" y1="35.07" x2="23.5" y2="38.97"/>
    <path class="cls-1" d="M19.21,39.97c2.25,1.21,5.48,1.53,8.4,0"/>
    <line class="cls-1" x1="7" y1="34.5" x2="13.22" y2="34.05"/>
    <line class="cls-1" x1="7.17" y1="38.13" x2="13.99" y2="35.71"/>
    <line class="cls-1" x1="11" y1="41" x2="15.55" y2="37.55"/>
    <line class="cls-1" x1="34.13" y1="33.97" x2="40.35" y2="33.51"/>
    <line class="cls-1" x1="33.65" y1="35.29" x2="40.83" y2="36.19"/>
    <line class="cls-1" x1="32.68" y1="37.49" x2="37.81" y2="39.99"/>
    <path class="cls-2" d="M14,22.35s2.41-2.65,5.21,0"/>
    <path class="cls-2" d="M27.68,22.51s2.41-2.65,5.21,0"/>
    <path class="cls-2" d="M13.64,28.91s3.35-6.75,7.24,0"/>
    <path class="cls-2" d="M27.08,29.07s3.35-6.75,7.24,0"/>
  </g>
</svg>