<svg width="28" height="38" viewBox="0 0 28 38" fill="none" xmlns="http://www.w3.org/2000/svg">
  <g filter="url(#filter0_d_1185_12365)">
    <rect width="26" height="36" fill="#EFEFEF"/>
  </g>
  <g filter="url(#filter1_d_1185_12365)">
    <circle cx="8" cy="23" r="5" fill="url(#paint0_linear_1185_12365)"/>
  </g>
  <g filter="url(#filter2_d_1185_12365)">
    <rect x="3" y="23" width="20" height="9" fill="#6EC9FF"/>
  </g>
  <circle cx="5" cy="5" r="5" transform="matrix(1 0 0 -1 13 27)" fill="#EFEFEF"/>
  <g filter="url(#filter3_d_1185_12365)">
    <circle cx="7.5" cy="3.5" r="0.5" fill="url(#paint1_linear_1185_12365)"/>
  </g>
  <g filter="url(#filter4_d_1185_12365)">
    <circle cx="12.5" cy="10.5" r="0.5" fill="url(#paint2_linear_1185_12365)"/>
  </g>
  <g filter="url(#filter5_d_1185_12365)">
    <circle cx="20" cy="8" r="1" fill="url(#paint3_linear_1185_12365)"/>
  </g>
  <g filter="url(#filter6_d_1185_12365)">
    <circle cx="18" cy="19" r="1" fill="url(#paint4_linear_1185_12365)"/>
  </g>
  <path d="M6.62244 7.248C6.62244 7.4 6.58777 7.52667 6.51844 7.628C6.4491 7.72933 6.3571 7.81067 6.24244 7.872C6.13044 7.93067 6.00777 7.97333 5.87444 8C5.74377 8.024 5.61577 8.036 5.49044 8.036C5.32777 8.036 5.17444 8.01067 5.03044 7.96C4.97177 7.93867 4.91444 7.916 4.85844 7.892C4.80244 7.86533 4.74377 7.844 4.68244 7.828C4.67177 7.74267 4.6531 7.64933 4.62644 7.548C4.60244 7.44667 4.59044 7.35467 4.59044 7.272C4.59044 7.23467 4.59577 7.20667 4.60644 7.188C4.61977 7.16667 4.64777 7.156 4.69044 7.156C4.72777 7.156 4.75177 7.16533 4.76244 7.184C4.7731 7.2 4.7811 7.22267 4.78644 7.252C4.7971 7.28933 4.80644 7.32667 4.81444 7.364C4.82244 7.39867 4.83177 7.43467 4.84244 7.472C4.89577 7.632 4.97444 7.744 5.07844 7.808C5.1851 7.872 5.3211 7.904 5.48644 7.904C5.62244 7.904 5.74377 7.88533 5.85044 7.848C5.95977 7.808 6.0451 7.744 6.10644 7.656C6.17044 7.568 6.20244 7.45067 6.20244 7.304C6.20244 7.18933 6.16377 7.08667 6.08644 6.996C6.0091 6.90267 5.92377 6.82933 5.83044 6.776C5.8091 6.76267 5.78644 6.75067 5.76244 6.74C5.73844 6.72933 5.71444 6.71867 5.69044 6.708C5.60777 6.66533 5.52377 6.62267 5.43844 6.58C5.35577 6.53733 5.27177 6.496 5.18644 6.456C5.10377 6.41333 5.01844 6.36 4.93044 6.296C4.8451 6.22933 4.77177 6.15333 4.71044 6.068C4.65177 5.98267 4.62244 5.88933 4.62244 5.788C4.62244 5.61733 4.66777 5.476 4.75844 5.364C4.8491 5.252 4.9651 5.168 5.10644 5.112C5.24777 5.056 5.39444 5.028 5.54644 5.028C5.65577 5.028 5.7531 5.04133 5.83844 5.068C5.92644 5.09467 6.0131 5.12267 6.09844 5.152C6.18377 5.17867 6.2771 5.19733 6.37844 5.208C6.38644 5.288 6.39444 5.368 6.40244 5.448C6.41044 5.528 6.42244 5.608 6.43844 5.688C6.4411 5.69867 6.44244 5.70933 6.44244 5.72C6.4451 5.73067 6.44644 5.74133 6.44644 5.752C6.44644 5.79467 6.43177 5.82267 6.40244 5.836C6.37577 5.84667 6.3451 5.852 6.31044 5.852C6.27577 5.852 6.2571 5.84533 6.25444 5.832C6.25177 5.81867 6.24777 5.79867 6.24244 5.772C6.20777 5.55867 6.13444 5.39867 6.02244 5.292C5.91044 5.18267 5.74244 5.128 5.51844 5.128C5.3531 5.128 5.22377 5.172 5.13044 5.26C5.03977 5.348 4.99444 5.476 4.99444 5.644C4.99444 5.756 5.02377 5.85067 5.08244 5.928C5.1411 6.00533 5.21844 6.07333 5.31444 6.132C5.4131 6.188 5.51977 6.24133 5.63444 6.292C5.75177 6.34267 5.86777 6.39467 5.98244 6.448C6.0971 6.50133 6.20244 6.564 6.29844 6.636C6.3971 6.70533 6.47577 6.78933 6.53444 6.888C6.5931 6.98667 6.62244 7.10667 6.62244 7.248ZM9.24544 7.892C9.24544 7.924 9.22144 7.948 9.17344 7.964C9.1281 7.98 9.07744 7.99067 9.02144 7.996C8.96544 8.00133 8.92544 8.004 8.90144 8.004C8.81077 8.004 8.73877 7.968 8.68544 7.896C8.6321 7.824 8.5921 7.74933 8.56544 7.672C8.47477 7.78667 8.36144 7.872 8.22544 7.928C8.08944 7.984 7.9481 8.012 7.80144 8.012C7.56144 8.012 7.39477 7.95067 7.30144 7.828C7.21077 7.70267 7.16544 7.52667 7.16544 7.3C7.16544 7.1 7.16544 6.9 7.16544 6.7C7.1681 6.49733 7.17077 6.296 7.17344 6.096C7.17344 6.016 7.13477 5.976 7.05744 5.976C7.0361 5.976 7.01477 5.97733 6.99344 5.98C6.9721 5.98267 6.95077 5.984 6.92944 5.984C6.92144 5.984 6.91477 5.98 6.90944 5.972C6.90677 5.96133 6.90544 5.95333 6.90544 5.948C6.90544 5.91867 6.91877 5.90267 6.94544 5.9C7.03877 5.88933 7.1321 5.88267 7.22544 5.88C7.32144 5.87467 7.4161 5.86667 7.50944 5.856C7.53077 5.87733 7.54144 5.904 7.54144 5.936C7.54144 6.00267 7.5401 6.07067 7.53744 6.14C7.53477 6.20933 7.53344 6.27867 7.53344 6.348C7.53077 6.51067 7.5281 6.67467 7.52544 6.84C7.52544 7.00267 7.52544 7.16667 7.52544 7.332C7.52544 7.38267 7.52677 7.43733 7.52944 7.496C7.5321 7.552 7.54277 7.604 7.56144 7.652C7.59077 7.72667 7.64544 7.78 7.72544 7.812C7.8081 7.84133 7.88677 7.856 7.96144 7.856C8.0441 7.856 8.12677 7.84133 8.20944 7.812C8.29477 7.78 8.36677 7.73467 8.42544 7.676C8.48677 7.61467 8.52144 7.53867 8.52944 7.448C8.53477 7.40267 8.53744 7.35733 8.53744 7.312C8.5401 7.264 8.54144 7.21733 8.54144 7.172L8.53744 6.084C8.53744 6.04933 8.52544 6.024 8.50144 6.008C8.4801 5.992 8.45477 5.984 8.42544 5.984C8.39877 5.984 8.3721 5.98533 8.34544 5.988C8.32144 5.99067 8.2961 5.992 8.26944 5.992C8.24544 5.992 8.23344 5.97867 8.23344 5.952C8.23344 5.92533 8.24544 5.91067 8.26944 5.908C8.30144 5.90267 8.33477 5.9 8.36944 5.9C8.4041 5.89733 8.43877 5.89467 8.47344 5.892L8.74944 5.864C8.7681 5.86133 8.78677 5.85867 8.80544 5.856C8.82677 5.85333 8.84677 5.852 8.86544 5.852C8.87877 5.852 8.8881 5.86 8.89344 5.876C8.89877 5.88933 8.90144 5.9 8.90144 5.908C8.89344 6.48667 8.88944 7.064 8.88944 7.64C8.88944 7.70667 8.9041 7.76133 8.93344 7.804C8.96544 7.84667 9.01744 7.868 9.08944 7.868C9.11077 7.868 9.12944 7.86533 9.14544 7.86C9.1641 7.85467 9.18277 7.852 9.20144 7.852C9.23077 7.852 9.24544 7.86533 9.24544 7.892ZM12.9292 7.948C12.9292 7.98533 12.9145 8.004 12.8852 8.004C12.8105 8.004 12.7345 8.00133 12.6572 7.996C12.5798 7.99067 12.5025 7.988 12.4252 7.988C12.3478 7.988 12.2692 7.99067 12.1892 7.996C12.1118 8.00133 12.0345 8.004 11.9572 8.004C11.9465 8.004 11.9385 7.99733 11.9332 7.984C11.9305 7.97067 11.9292 7.96 11.9292 7.952C11.9292 7.928 11.9412 7.91333 11.9652 7.908C11.9918 7.90267 12.0198 7.90133 12.0492 7.904C12.0812 7.90667 12.1052 7.908 12.1212 7.908C12.1585 7.908 12.1892 7.89867 12.2132 7.88C12.2372 7.86133 12.2492 7.83333 12.2492 7.796C12.2492 7.61733 12.2505 7.44 12.2532 7.264C12.2585 7.088 12.2612 6.912 12.2612 6.736C12.2612 6.70667 12.2612 6.67733 12.2612 6.648C12.2612 6.61867 12.2598 6.58933 12.2572 6.56C12.2545 6.496 12.2505 6.43067 12.2452 6.364C12.2425 6.29467 12.2318 6.23067 12.2132 6.172C12.1945 6.11067 12.1625 6.06133 12.1172 6.024C12.0718 5.98667 12.0065 5.968 11.9212 5.968C11.8598 5.968 11.7918 5.98667 11.7172 6.024C11.6452 6.05867 11.5758 6.1 11.5092 6.148C11.4425 6.196 11.3865 6.24133 11.3412 6.284C11.3465 6.32133 11.3492 6.36 11.3492 6.4C11.3492 6.43733 11.3492 6.47467 11.3492 6.512C11.3492 6.58933 11.3492 6.668 11.3492 6.748C11.3518 6.82533 11.3532 6.90267 11.3532 6.98C11.3532 7.116 11.3518 7.252 11.3492 7.388C11.3492 7.524 11.3492 7.66 11.3492 7.796C11.3492 7.836 11.3665 7.864 11.4012 7.88C11.4358 7.896 11.4705 7.904 11.5052 7.904C11.5265 7.904 11.5478 7.90267 11.5692 7.9C11.5932 7.89733 11.6145 7.896 11.6332 7.896C11.6465 7.896 11.6545 7.90267 11.6572 7.916C11.6625 7.92933 11.6652 7.94 11.6652 7.948C11.6652 7.96133 11.6612 7.97467 11.6532 7.988C11.6452 7.99867 11.6332 8.004 11.6172 8.004C11.5425 8.004 11.4665 8.00133 11.3892 7.996C11.3145 7.99067 11.2385 7.988 11.1612 7.988C11.0865 7.988 11.0105 7.99067 10.9332 7.996C10.8558 8.00133 10.7785 8.004 10.7012 8.004C10.6905 8.004 10.6825 7.99733 10.6772 7.984C10.6718 7.97067 10.6692 7.96 10.6692 7.952C10.6692 7.93067 10.6798 7.916 10.7012 7.908C10.7225 7.90267 10.7478 7.90133 10.7772 7.904C10.8092 7.90667 10.8358 7.908 10.8572 7.908C10.8945 7.908 10.9252 7.9 10.9492 7.884C10.9758 7.86533 10.9892 7.836 10.9892 7.796V6.776C10.9892 6.72 10.9878 6.65067 10.9852 6.568C10.9852 6.48533 10.9798 6.404 10.9692 6.324C10.9612 6.24133 10.9465 6.176 10.9252 6.128C10.9065 6.08 10.8745 6.04267 10.8292 6.016C10.7865 5.98933 10.7385 5.976 10.6852 5.976C10.6158 5.976 10.5452 5.99333 10.4732 6.028C10.4012 6.06267 10.3332 6.10533 10.2692 6.156C10.2052 6.20667 10.1505 6.25733 10.1052 6.308V7.792C10.1052 7.832 10.1198 7.86133 10.1492 7.88C10.1785 7.896 10.2105 7.904 10.2452 7.904C10.2665 7.904 10.2878 7.90267 10.3092 7.9C10.3305 7.89467 10.3505 7.892 10.3692 7.892C10.3798 7.892 10.3865 7.9 10.3892 7.916C10.3918 7.92933 10.3932 7.93867 10.3932 7.944C10.3932 7.95733 10.3892 7.97067 10.3812 7.984C10.3758 7.99467 10.3652 8 10.3492 8C10.2985 8 10.2478 7.99867 10.1972 7.996C10.1465 7.99067 10.0958 7.988 10.0452 7.988C9.94382 7.988 9.84249 7.99067 9.74116 7.996C9.63982 7.99867 9.53849 8 9.43716 8C9.42649 8 9.41849 7.99333 9.41316 7.98C9.40782 7.96667 9.40516 7.956 9.40516 7.948C9.40516 7.916 9.41849 7.9 9.44516 7.9C9.47449 7.9 9.50249 7.90133 9.52916 7.904C9.55582 7.904 9.58249 7.904 9.60916 7.904C9.64649 7.904 9.67849 7.896 9.70516 7.88C9.73182 7.86133 9.74516 7.832 9.74516 7.792C9.74516 7.52267 9.74382 7.25333 9.74116 6.984C9.74116 6.712 9.74116 6.44133 9.74116 6.172C9.74116 6.14267 9.73849 6.11333 9.73316 6.084C9.72782 6.05467 9.71049 6.03467 9.68116 6.024C9.66249 6.016 9.64249 6.012 9.62116 6.012C9.58649 6.012 9.55182 6.01733 9.51716 6.028C9.48249 6.036 9.44649 6.04 9.40916 6.04C9.38516 6.04 9.37316 6.024 9.37316 5.992C9.37316 5.97067 9.38116 5.95733 9.39716 5.952C9.41049 5.94667 9.42516 5.944 9.44116 5.944C9.45982 5.94133 9.47716 5.93867 9.49316 5.936C9.55449 5.928 9.61582 5.91867 9.67716 5.908C9.74116 5.89467 9.80249 5.88133 9.86116 5.868C9.88249 5.86267 9.90516 5.85733 9.92916 5.852C9.95316 5.84667 9.97716 5.844 10.0012 5.844C10.0332 5.844 10.0545 5.868 10.0652 5.916C10.0785 5.96133 10.0852 6.01067 10.0852 6.064C10.0878 6.11733 10.0892 6.156 10.0892 6.18C10.1452 6.132 10.2078 6.08267 10.2772 6.032C10.3465 5.97867 10.4198 5.93333 10.4972 5.896C10.5745 5.85867 10.6518 5.84 10.7292 5.84C10.8652 5.84 10.9798 5.86267 11.0732 5.908C11.1665 5.95333 11.2465 6.03867 11.3132 6.164C11.3718 6.11333 11.4385 6.06267 11.5132 6.012C11.5878 5.95867 11.6652 5.91467 11.7452 5.88C11.8278 5.84267 11.9092 5.824 11.9892 5.824C12.1652 5.824 12.2985 5.84933 12.3892 5.9C12.4825 5.95067 12.5452 6.02933 12.5772 6.136C12.6118 6.24 12.6292 6.37467 12.6292 6.54C12.6292 6.748 12.6278 6.95733 12.6252 7.168C12.6225 7.376 12.6212 7.58533 12.6212 7.796C12.6212 7.836 12.6385 7.864 12.6732 7.88C12.7105 7.896 12.7465 7.904 12.7812 7.904C12.8025 7.904 12.8225 7.90267 12.8412 7.9C12.8625 7.89733 12.8825 7.896 12.9012 7.896C12.9118 7.896 12.9185 7.90267 12.9212 7.916C12.9265 7.92933 12.9292 7.94 12.9292 7.948ZM16.6088 7.948C16.6088 7.98533 16.5942 8.004 16.5648 8.004C16.4902 8.004 16.4142 8.00133 16.3368 7.996C16.2595 7.99067 16.1822 7.988 16.1048 7.988C16.0275 7.988 15.9488 7.99067 15.8688 7.996C15.7915 8.00133 15.7142 8.004 15.6368 8.004C15.6262 8.004 15.6182 7.99733 15.6128 7.984C15.6102 7.97067 15.6088 7.96 15.6088 7.952C15.6088 7.928 15.6208 7.91333 15.6448 7.908C15.6715 7.90267 15.6995 7.90133 15.7288 7.904C15.7608 7.90667 15.7848 7.908 15.8008 7.908C15.8382 7.908 15.8688 7.89867 15.8928 7.88C15.9168 7.86133 15.9288 7.83333 15.9288 7.796C15.9288 7.61733 15.9302 7.44 15.9328 7.264C15.9382 7.088 15.9408 6.912 15.9408 6.736C15.9408 6.70667 15.9408 6.67733 15.9408 6.648C15.9408 6.61867 15.9395 6.58933 15.9368 6.56C15.9342 6.496 15.9302 6.43067 15.9248 6.364C15.9222 6.29467 15.9115 6.23067 15.8928 6.172C15.8742 6.11067 15.8422 6.06133 15.7968 6.024C15.7515 5.98667 15.6862 5.968 15.6008 5.968C15.5395 5.968 15.4715 5.98667 15.3968 6.024C15.3248 6.05867 15.2555 6.1 15.1888 6.148C15.1222 6.196 15.0662 6.24133 15.0208 6.284C15.0262 6.32133 15.0288 6.36 15.0288 6.4C15.0288 6.43733 15.0288 6.47467 15.0288 6.512C15.0288 6.58933 15.0288 6.668 15.0288 6.748C15.0315 6.82533 15.0328 6.90267 15.0328 6.98C15.0328 7.116 15.0315 7.252 15.0288 7.388C15.0288 7.524 15.0288 7.66 15.0288 7.796C15.0288 7.836 15.0462 7.864 15.0808 7.88C15.1155 7.896 15.1502 7.904 15.1848 7.904C15.2062 7.904 15.2275 7.90267 15.2488 7.9C15.2728 7.89733 15.2942 7.896 15.3128 7.896C15.3262 7.896 15.3342 7.90267 15.3368 7.916C15.3422 7.92933 15.3448 7.94 15.3448 7.948C15.3448 7.96133 15.3408 7.97467 15.3328 7.988C15.3248 7.99867 15.3128 8.004 15.2968 8.004C15.2222 8.004 15.1462 8.00133 15.0688 7.996C14.9942 7.99067 14.9182 7.988 14.8408 7.988C14.7662 7.988 14.6902 7.99067 14.6128 7.996C14.5355 8.00133 14.4582 8.004 14.3808 8.004C14.3702 8.004 14.3622 7.99733 14.3568 7.984C14.3515 7.97067 14.3488 7.96 14.3488 7.952C14.3488 7.93067 14.3595 7.916 14.3808 7.908C14.4022 7.90267 14.4275 7.90133 14.4568 7.904C14.4888 7.90667 14.5155 7.908 14.5368 7.908C14.5742 7.908 14.6048 7.9 14.6288 7.884C14.6555 7.86533 14.6688 7.836 14.6688 7.796V6.776C14.6688 6.72 14.6675 6.65067 14.6648 6.568C14.6648 6.48533 14.6595 6.404 14.6488 6.324C14.6408 6.24133 14.6262 6.176 14.6048 6.128C14.5862 6.08 14.5542 6.04267 14.5088 6.016C14.4662 5.98933 14.4182 5.976 14.3648 5.976C14.2955 5.976 14.2248 5.99333 14.1528 6.028C14.0808 6.06267 14.0128 6.10533 13.9488 6.156C13.8848 6.20667 13.8302 6.25733 13.7848 6.308V7.792C13.7848 7.832 13.7995 7.86133 13.8288 7.88C13.8582 7.896 13.8902 7.904 13.9248 7.904C13.9462 7.904 13.9675 7.90267 13.9888 7.9C14.0102 7.89467 14.0302 7.892 14.0488 7.892C14.0595 7.892 14.0662 7.9 14.0688 7.916C14.0715 7.92933 14.0728 7.93867 14.0728 7.944C14.0728 7.95733 14.0688 7.97067 14.0608 7.984C14.0555 7.99467 14.0448 8 14.0288 8C13.9782 8 13.9275 7.99867 13.8768 7.996C13.8262 7.99067 13.7755 7.988 13.7248 7.988C13.6235 7.988 13.5222 7.99067 13.4208 7.996C13.3195 7.99867 13.2182 8 13.1168 8C13.1062 8 13.0982 7.99333 13.0928 7.98C13.0875 7.96667 13.0848 7.956 13.0848 7.948C13.0848 7.916 13.0982 7.9 13.1248 7.9C13.1542 7.9 13.1822 7.90133 13.2088 7.904C13.2355 7.904 13.2622 7.904 13.2888 7.904C13.3262 7.904 13.3582 7.896 13.3848 7.88C13.4115 7.86133 13.4248 7.832 13.4248 7.792C13.4248 7.52267 13.4235 7.25333 13.4208 6.984C13.4208 6.712 13.4208 6.44133 13.4208 6.172C13.4208 6.14267 13.4182 6.11333 13.4128 6.084C13.4075 6.05467 13.3902 6.03467 13.3608 6.024C13.3422 6.016 13.3222 6.012 13.3008 6.012C13.2662 6.012 13.2315 6.01733 13.1968 6.028C13.1622 6.036 13.1262 6.04 13.0888 6.04C13.0648 6.04 13.0528 6.024 13.0528 5.992C13.0528 5.97067 13.0608 5.95733 13.0768 5.952C13.0902 5.94667 13.1048 5.944 13.1208 5.944C13.1395 5.94133 13.1568 5.93867 13.1728 5.936C13.2342 5.928 13.2955 5.91867 13.3568 5.908C13.4208 5.89467 13.4822 5.88133 13.5408 5.868C13.5622 5.86267 13.5848 5.85733 13.6088 5.852C13.6328 5.84667 13.6568 5.844 13.6808 5.844C13.7128 5.844 13.7342 5.868 13.7448 5.916C13.7582 5.96133 13.7648 6.01067 13.7648 6.064C13.7675 6.11733 13.7688 6.156 13.7688 6.18C13.8248 6.132 13.8875 6.08267 13.9568 6.032C14.0262 5.97867 14.0995 5.93333 14.1768 5.896C14.2542 5.85867 14.3315 5.84 14.4088 5.84C14.5448 5.84 14.6595 5.86267 14.7528 5.908C14.8462 5.95333 14.9262 6.03867 14.9928 6.164C15.0515 6.11333 15.1182 6.06267 15.1928 6.012C15.2675 5.95867 15.3448 5.91467 15.4248 5.88C15.5075 5.84267 15.5888 5.824 15.6688 5.824C15.8448 5.824 15.9782 5.84933 16.0688 5.9C16.1622 5.95067 16.2248 6.02933 16.2568 6.136C16.2915 6.24 16.3088 6.37467 16.3088 6.54C16.3088 6.748 16.3075 6.95733 16.3048 7.168C16.3022 7.376 16.3008 7.58533 16.3008 7.796C16.3008 7.836 16.3182 7.864 16.3528 7.88C16.3902 7.896 16.4262 7.904 16.4608 7.904C16.4822 7.904 16.5022 7.90267 16.5208 7.9C16.5422 7.89733 16.5622 7.896 16.5808 7.896C16.5915 7.896 16.5982 7.90267 16.6008 7.916C16.6062 7.92933 16.6088 7.94 16.6088 7.948ZM18.2765 6.596C18.2739 6.48667 18.2645 6.38267 18.2485 6.284C18.2325 6.18267 18.1939 6.1 18.1325 6.036C18.0712 5.96933 17.9712 5.936 17.8325 5.936C17.7072 5.936 17.6045 5.97067 17.5245 6.04C17.4472 6.10667 17.3872 6.192 17.3445 6.296C17.3019 6.39733 17.2699 6.50133 17.2485 6.608C17.3152 6.61067 17.3805 6.61333 17.4445 6.616C17.5085 6.616 17.5725 6.616 17.6365 6.616C17.7432 6.616 17.8499 6.61467 17.9565 6.612C18.0632 6.60667 18.1699 6.60133 18.2765 6.596ZM18.7365 7.512C18.7365 7.52533 18.7339 7.53333 18.7285 7.536C18.7205 7.56267 18.7005 7.59467 18.6685 7.632C18.6392 7.66933 18.6059 7.70533 18.5685 7.74C18.5312 7.772 18.5005 7.796 18.4765 7.812C18.3885 7.87333 18.2885 7.92267 18.1765 7.96C18.0672 7.99733 17.9579 8.016 17.8485 8.016C17.7579 8.016 17.6565 8.00133 17.5445 7.972C17.4352 7.94267 17.3419 7.90267 17.2645 7.852C17.1152 7.75333 17.0059 7.624 16.9365 7.464C16.8672 7.304 16.8325 7.13733 16.8325 6.964C16.8325 6.76667 16.8712 6.584 16.9485 6.416C17.0259 6.248 17.1499 6.112 17.3205 6.008C17.3979 5.96267 17.4845 5.92533 17.5805 5.896C17.6765 5.864 17.7685 5.848 17.8565 5.848C18.0139 5.848 18.1525 5.88 18.2725 5.944C18.3925 6.008 18.4859 6.09867 18.5525 6.216C18.6219 6.33067 18.6565 6.468 18.6565 6.628C18.6565 6.67333 18.6459 6.70267 18.6245 6.716C18.6059 6.72933 18.5765 6.736 18.5365 6.736C18.4832 6.736 18.4299 6.73467 18.3765 6.732C18.3232 6.72933 18.2699 6.72667 18.2165 6.724C18.1419 6.71867 18.0672 6.716 17.9925 6.716C17.9205 6.716 17.8472 6.716 17.7725 6.716C17.6819 6.716 17.5912 6.716 17.5005 6.716C17.4099 6.716 17.3192 6.71867 17.2285 6.724C17.2259 6.76667 17.2232 6.808 17.2205 6.848C17.2179 6.888 17.2165 6.92933 17.2165 6.972C17.2165 7.07067 17.2285 7.17333 17.2525 7.28C17.2765 7.384 17.3152 7.48133 17.3685 7.572C17.4219 7.66 17.4899 7.732 17.5725 7.788C17.6552 7.84133 17.7552 7.868 17.8725 7.868C17.9925 7.868 18.1072 7.84933 18.2165 7.812C18.3259 7.77467 18.4259 7.71467 18.5165 7.632C18.5405 7.608 18.5619 7.58267 18.5805 7.556C18.6019 7.52667 18.6245 7.50133 18.6485 7.48C18.6619 7.46667 18.6765 7.46 18.6925 7.46C18.7059 7.46 18.7165 7.46533 18.7245 7.476C18.7325 7.48667 18.7365 7.49867 18.7365 7.512ZM20.5642 6.22C20.5642 6.24667 20.5536 6.272 20.5322 6.296C20.5136 6.31733 20.4896 6.328 20.4602 6.328C20.4202 6.328 20.3909 6.31467 20.3722 6.288C20.3562 6.26133 20.3416 6.23067 20.3282 6.196C20.3176 6.16133 20.3002 6.13067 20.2762 6.104C20.2522 6.07733 20.2122 6.064 20.1562 6.064C20.1456 6.064 20.1349 6.064 20.1242 6.064C20.1162 6.064 20.1069 6.06533 20.0962 6.068C20.0509 6.076 20.0016 6.104 19.9482 6.152C19.8949 6.2 19.8429 6.25733 19.7922 6.324C19.7442 6.388 19.7042 6.452 19.6722 6.516C19.6402 6.58 19.6229 6.63333 19.6202 6.676C19.6176 6.71867 19.6162 6.76133 19.6162 6.804C19.6162 6.844 19.6162 6.884 19.6162 6.924C19.6162 7.068 19.6162 7.212 19.6162 7.356C19.6189 7.5 19.6202 7.64267 19.6202 7.784C19.6202 7.824 19.6362 7.85333 19.6682 7.872C19.7029 7.888 19.7376 7.896 19.7722 7.896C19.7989 7.896 19.8256 7.89467 19.8522 7.892C19.8789 7.88933 19.9056 7.888 19.9322 7.888C19.9456 7.888 19.9549 7.89467 19.9602 7.908C19.9656 7.91867 19.9682 7.92933 19.9682 7.94C19.9682 7.98267 19.9469 8.004 19.9042 8.004C19.8242 8.004 19.7442 8.00267 19.6642 8C19.5842 7.99467 19.5042 7.992 19.4242 7.992C19.3416 7.992 19.2576 7.99467 19.1722 8C19.0896 8.00533 19.0056 8.008 18.9202 8.008C18.9096 8.008 18.9016 8 18.8962 7.984C18.8936 7.968 18.8922 7.95467 18.8922 7.944C18.8922 7.91733 18.9029 7.90267 18.9242 7.9C18.9536 7.89467 18.9842 7.89333 19.0162 7.896C19.0482 7.89867 19.0776 7.9 19.1042 7.9C19.1442 7.9 19.1762 7.892 19.2002 7.876C19.2269 7.85733 19.2416 7.82667 19.2442 7.784C19.2496 7.69867 19.2522 7.612 19.2522 7.524C19.2549 7.436 19.2562 7.348 19.2562 7.26V6.872C19.2536 6.75733 19.2522 6.644 19.2522 6.532C19.2549 6.41733 19.2509 6.304 19.2402 6.192C19.2376 6.13867 19.2229 6.10133 19.1962 6.08C19.1696 6.056 19.1296 6.044 19.0762 6.044C19.0549 6.044 19.0322 6.04667 19.0082 6.052C18.9869 6.05467 18.9642 6.056 18.9402 6.056C18.9189 6.056 18.9082 6.04 18.9082 6.008C18.9082 5.98933 18.9176 5.976 18.9362 5.968C18.9629 5.96 18.9909 5.95467 19.0202 5.952C19.0496 5.94667 19.0776 5.94267 19.1042 5.94C19.1762 5.92667 19.2482 5.91333 19.3202 5.9C19.3922 5.88667 19.4642 5.87067 19.5362 5.852C19.5602 5.86 19.5776 5.87467 19.5882 5.896C19.5936 5.90667 19.5976 5.936 19.6002 5.984C19.6029 6.032 19.6042 6.088 19.6042 6.152C19.6042 6.21333 19.6042 6.272 19.6042 6.328C19.6042 6.38133 19.6042 6.41867 19.6042 6.44C19.6629 6.34667 19.7296 6.25333 19.8042 6.16C19.8789 6.06667 19.9642 5.98933 20.0602 5.928C20.1562 5.86667 20.2642 5.836 20.3842 5.836C20.4482 5.836 20.4896 5.856 20.5082 5.896C20.5269 5.936 20.5389 5.98267 20.5442 6.036C20.5496 6.06533 20.5536 6.096 20.5562 6.128C20.5616 6.16 20.5642 6.19067 20.5642 6.22Z" fill="#0084FF"/>
  <defs>
    <filter id="filter0_d_1185_12365" x="0" y="0" width="28" height="38" filterUnits="userSpaceOnUse" color-interpolation-filters="sRGB">
      <feFlood flood-opacity="0" result="BackgroundImageFix"/>
      <feColorMatrix in="SourceAlpha" type="matrix" values="0 0 0 0 0 0 0 0 0 0 0 0 0 0 0 0 0 0 127 0" result="hardAlpha"/>
      <feOffset dx="1" dy="1"/>
      <feGaussianBlur stdDeviation="0.5"/>
      <feComposite in2="hardAlpha" operator="out"/>
      <feColorMatrix type="matrix" values="0 0 0 0 0 0 0 0 0 0 0 0 0 0 0 0 0 0 0.25 0"/>
      <feBlend mode="normal" in2="BackgroundImageFix" result="effect1_dropShadow_1185_12365"/>
      <feBlend mode="normal" in="SourceGraphic" in2="effect1_dropShadow_1185_12365" result="shape"/>
    </filter>
    <filter id="filter1_d_1185_12365" x="2.5" y="17" width="12" height="12" filterUnits="userSpaceOnUse" color-interpolation-filters="sRGB">
      <feFlood flood-opacity="0" result="BackgroundImageFix"/>
      <feColorMatrix in="SourceAlpha" type="matrix" values="0 0 0 0 0 0 0 0 0 0 0 0 0 0 0 0 0 0 127 0" result="hardAlpha"/>
      <feOffset dx="0.5"/>
      <feGaussianBlur stdDeviation="0.5"/>
      <feComposite in2="hardAlpha" operator="out"/>
      <feColorMatrix type="matrix" values="0 0 0 0 0 0 0 0 0 0 0 0 0 0 0 0 0 0 0.25 0"/>
      <feBlend mode="normal" in2="BackgroundImageFix" result="effect1_dropShadow_1185_12365"/>
      <feBlend mode="normal" in="SourceGraphic" in2="effect1_dropShadow_1185_12365" result="shape"/>
    </filter>
    <filter id="filter2_d_1185_12365" x="2.5" y="22.5" width="22" height="11" filterUnits="userSpaceOnUse" color-interpolation-filters="sRGB">
      <feFlood flood-opacity="0" result="BackgroundImageFix"/>
      <feColorMatrix in="SourceAlpha" type="matrix" values="0 0 0 0 0 0 0 0 0 0 0 0 0 0 0 0 0 0 127 0" result="hardAlpha"/>
      <feOffset dx="0.5" dy="0.5"/>
      <feGaussianBlur stdDeviation="0.5"/>
      <feComposite in2="hardAlpha" operator="out"/>
      <feColorMatrix type="matrix" values="0 0 0 0 0 0 0 0 0 0 0 0 0 0 0 0 0 0 0.25 0"/>
      <feBlend mode="normal" in2="BackgroundImageFix" result="effect1_dropShadow_1185_12365"/>
      <feBlend mode="normal" in="SourceGraphic" in2="effect1_dropShadow_1185_12365" result="shape"/>
    </filter>
    <filter id="filter3_d_1185_12365" x="7" y="3" width="1.2" height="1.2" filterUnits="userSpaceOnUse" color-interpolation-filters="sRGB">
      <feFlood flood-opacity="0" result="BackgroundImageFix"/>
      <feColorMatrix in="SourceAlpha" type="matrix" values="0 0 0 0 0 0 0 0 0 0 0 0 0 0 0 0 0 0 127 0" result="hardAlpha"/>
      <feOffset dx="0.1" dy="0.1"/>
      <feGaussianBlur stdDeviation="0.05"/>
      <feComposite in2="hardAlpha" operator="out"/>
      <feColorMatrix type="matrix" values="0 0 0 0 0 0 0 0 0 0 0 0 0 0 0 0 0 0 0.25 0"/>
      <feBlend mode="normal" in2="BackgroundImageFix" result="effect1_dropShadow_1185_12365"/>
      <feBlend mode="normal" in="SourceGraphic" in2="effect1_dropShadow_1185_12365" result="shape"/>
    </filter>
    <filter id="filter4_d_1185_12365" x="12" y="10" width="1.2" height="1.2" filterUnits="userSpaceOnUse" color-interpolation-filters="sRGB">
      <feFlood flood-opacity="0" result="BackgroundImageFix"/>
      <feColorMatrix in="SourceAlpha" type="matrix" values="0 0 0 0 0 0 0 0 0 0 0 0 0 0 0 0 0 0 127 0" result="hardAlpha"/>
      <feOffset dx="0.1" dy="0.1"/>
      <feGaussianBlur stdDeviation="0.05"/>
      <feComposite in2="hardAlpha" operator="out"/>
      <feColorMatrix type="matrix" values="0 0 0 0 0 0 0 0 0 0 0 0 0 0 0 0 0 0 0.25 0"/>
      <feBlend mode="normal" in2="BackgroundImageFix" result="effect1_dropShadow_1185_12365"/>
      <feBlend mode="normal" in="SourceGraphic" in2="effect1_dropShadow_1185_12365" result="shape"/>
    </filter>
    <filter id="filter5_d_1185_12365" x="19" y="7" width="2.4" height="2.4" filterUnits="userSpaceOnUse" color-interpolation-filters="sRGB">
      <feFlood flood-opacity="0" result="BackgroundImageFix"/>
      <feColorMatrix in="SourceAlpha" type="matrix" values="0 0 0 0 0 0 0 0 0 0 0 0 0 0 0 0 0 0 127 0" result="hardAlpha"/>
      <feOffset dx="0.2" dy="0.2"/>
      <feGaussianBlur stdDeviation="0.1"/>
      <feComposite in2="hardAlpha" operator="out"/>
      <feColorMatrix type="matrix" values="0 0 0 0 0 0 0 0 0 0 0 0 0 0 0 0 0 0 0.25 0"/>
      <feBlend mode="normal" in2="BackgroundImageFix" result="effect1_dropShadow_1185_12365"/>
      <feBlend mode="normal" in="SourceGraphic" in2="effect1_dropShadow_1185_12365" result="shape"/>
    </filter>
    <filter id="filter6_d_1185_12365" x="17" y="18" width="2.4" height="2.4" filterUnits="userSpaceOnUse" color-interpolation-filters="sRGB">
      <feFlood flood-opacity="0" result="BackgroundImageFix"/>
      <feColorMatrix in="SourceAlpha" type="matrix" values="0 0 0 0 0 0 0 0 0 0 0 0 0 0 0 0 0 0 127 0" result="hardAlpha"/>
      <feOffset dx="0.2" dy="0.2"/>
      <feGaussianBlur stdDeviation="0.1"/>
      <feComposite in2="hardAlpha" operator="out"/>
      <feColorMatrix type="matrix" values="0 0 0 0 0 0 0 0 0 0 0 0 0 0 0 0 0 0 0.25 0"/>
      <feBlend mode="normal" in2="BackgroundImageFix" result="effect1_dropShadow_1185_12365"/>
      <feBlend mode="normal" in="SourceGraphic" in2="effect1_dropShadow_1185_12365" result="shape"/>
    </filter>
    <linearGradient id="paint0_linear_1185_12365" x1="8" y1="18" x2="8" y2="28" gradientUnits="userSpaceOnUse">
      <stop stop-color="#ABEDFF"/>
      <stop offset="1" stop-color="#219BFF"/>
    </linearGradient>
    <linearGradient id="paint1_linear_1185_12365" x1="7.5" y1="3" x2="7.5" y2="4" gradientUnits="userSpaceOnUse">
      <stop stop-color="#EEFBFF"/>
      <stop offset="1" stop-color="#73C0FF"/>
    </linearGradient>
    <linearGradient id="paint2_linear_1185_12365" x1="12.5" y1="10" x2="12.5" y2="11" gradientUnits="userSpaceOnUse">
      <stop stop-color="#EEFBFF"/>
      <stop offset="1" stop-color="#73C0FF"/>
    </linearGradient>
    <linearGradient id="paint3_linear_1185_12365" x1="20" y1="7" x2="20" y2="9" gradientUnits="userSpaceOnUse">
      <stop stop-color="#EEFBFF"/>
      <stop offset="1" stop-color="#73C0FF"/>
    </linearGradient>
    <linearGradient id="paint4_linear_1185_12365" x1="18" y1="18" x2="18" y2="20" gradientUnits="userSpaceOnUse">
      <stop stop-color="#EEFBFF"/>
      <stop offset="1" stop-color="#73C0FF"/>
    </linearGradient>
  </defs>
</svg>
