<svg width="54" height="17" viewBox="0 0 54 17" fill="none" xmlns="http://www.w3.org/2000/svg">
  <rect width="54" height="17" rx="8.5" fill="#FFA652"/>
  <path d="M17.4729 7.01C17.4729 7.32333 17.4029 7.62 17.2629 7.9C17.1229 8.18 16.9262 8.41667 16.6729 8.61C16.4462 8.77667 16.1962 8.89333 15.9229 8.96C15.6562 9.02667 15.3862 9.05 15.1129 9.03C14.8395 9.01 14.5762 8.95 14.3229 8.85C14.0695 8.74333 13.8429 8.60333 13.6429 8.43C13.4495 8.25667 13.2929 8.05 13.1729 7.81C13.0529 7.57 12.9929 7.30333 12.9929 7.01C12.9929 6.74333 13.0329 6.50333 13.1129 6.29C13.1929 6.07667 13.3029 5.88667 13.4429 5.72H13.2629C13.0962 5.72 12.9562 5.67 12.8429 5.57C12.7295 5.46333 12.6729 5.33667 12.6729 5.19C12.6729 5.03667 12.7295 4.91 12.8429 4.81C12.9562 4.70333 13.0962 4.65 13.2629 4.65H14.5829V4.33C14.5829 4.19667 14.6395 4.08667 14.7529 4C14.8662 3.90667 15.0029 3.86 15.1629 3.86C15.3229 3.86 15.4595 3.90667 15.5729 4C15.6862 4.08667 15.7429 4.19667 15.7429 4.33V4.65H17.1329C17.2995 4.65 17.4395 4.70333 17.5529 4.81C17.6662 4.91 17.7229 5.03667 17.7229 5.19C17.7229 5.33667 17.6662 5.46333 17.5529 5.57C17.4395 5.67 17.2995 5.72 17.1329 5.72H17.0129C17.1529 5.88667 17.2629 6.07667 17.3429 6.29C17.4295 6.50333 17.4729 6.74333 17.4729 7.01ZM14.7529 12.27C14.4795 12.27 14.2595 12.21 14.0929 12.09C13.9262 11.9767 13.8429 11.8433 13.8429 11.69V10.25C13.8295 10.1033 13.8295 9.95333 13.8429 9.8C13.8562 9.66 13.9095 9.54667 14.0029 9.46C14.1029 9.37333 14.2295 9.33 14.3829 9.33C14.4162 9.33 14.4762 9.33333 14.5629 9.34C14.6495 9.34 14.7095 9.34667 14.7429 9.36C14.8295 9.38667 14.8962 9.42667 14.9429 9.48C14.9962 9.53333 15.0362 9.59667 15.0629 9.67C15.0895 9.73667 15.1062 9.81 15.1129 9.89C15.1195 9.96333 15.1262 10.0367 15.1329 10.11C15.1329 10.1367 15.1329 10.2 15.1329 10.3C15.1395 10.3933 15.1429 10.4967 15.1429 10.61C15.1495 10.7167 15.1529 10.8167 15.1529 10.91C15.1595 11.0033 15.1662 11.06 15.1729 11.08C15.1929 11.0867 15.2462 11.0967 15.3329 11.11C15.4262 11.1167 15.5962 11.12 15.8429 11.12C16.0562 11.12 16.1862 11.1167 16.2329 11.11C16.2862 11.1033 16.3162 11.1 16.3229 11.1H19.5929C19.5929 11.1 19.6129 11.1067 19.6529 11.12C19.6995 11.1333 19.7495 11.1567 19.8029 11.19C19.8562 11.2167 19.9062 11.2567 19.9529 11.31C19.9995 11.3567 20.0295 11.4133 20.0429 11.48C20.0762 11.7333 20.0329 11.93 19.9129 12.07C19.8329 12.1633 19.7462 12.22 19.6529 12.24C19.5595 12.26 19.5095 12.27 19.5029 12.27H14.7529ZM19.7629 7.47V8.78C19.7562 8.85333 19.7462 8.93 19.7329 9.01C19.7195 9.08333 19.6895 9.15667 19.6429 9.23C19.5962 9.31667 19.5362 9.38 19.4629 9.42C19.3562 9.49333 19.2395 9.53 19.1129 9.53C19.0062 9.53 18.9095 9.50333 18.8229 9.45C18.7495 9.41 18.6895 9.36 18.6429 9.3C18.6029 9.24 18.5695 9.18333 18.5429 9.13C18.5229 9.07667 18.5095 9.03 18.5029 8.99C18.4962 8.94333 18.4929 8.92 18.4929 8.92V5.11C18.4929 5.07667 18.4962 5.00333 18.5029 4.89C18.5162 4.77 18.5429 4.67 18.5829 4.59C18.6562 4.45 18.8029 4.37 19.0229 4.35C19.2695 4.31667 19.4595 4.36667 19.5929 4.5C19.6329 4.55333 19.6629 4.60667 19.6829 4.66C19.7029 4.70667 19.7195 4.75667 19.7329 4.81C19.7529 4.87667 19.7629 4.94667 19.7629 5.02C19.7695 5.09333 19.7695 5.16667 19.7629 5.24V6.35C19.7895 6.35 19.8429 6.35333 19.9229 6.36C20.0029 6.36667 20.0862 6.37333 20.1729 6.38C20.2595 6.38 20.3395 6.38333 20.4129 6.39C20.4929 6.39667 20.5462 6.40333 20.5729 6.41C20.7129 6.43667 20.8129 6.47667 20.8729 6.53C20.9329 6.57667 20.9729 6.63667 20.9929 6.71C21.0062 6.78333 21.0129 6.87 21.0129 6.97C21.0129 7.06333 20.9929 7.14333 20.9529 7.21C20.8662 7.34333 20.7395 7.42 20.5729 7.44C20.4062 7.46 20.2162 7.47 20.0029 7.47H19.7629ZM15.4329 7.9C15.6462 7.86 15.8295 7.76667 15.9829 7.62C16.1429 7.46667 16.2229 7.26333 16.2229 7.01C16.2229 6.81 16.1729 6.64333 16.0729 6.51C15.9795 6.37667 15.8595 6.27667 15.7129 6.21C15.5662 6.13667 15.4062 6.1 15.2329 6.1C15.0595 6.09333 14.8995 6.12333 14.7529 6.19C14.6062 6.25667 14.4829 6.36 14.3829 6.5C14.2895 6.63333 14.2429 6.80333 14.2429 7.01C14.2429 7.19 14.2795 7.34333 14.3529 7.47C14.4262 7.59667 14.5195 7.69667 14.6329 7.77C14.7462 7.84333 14.8729 7.89 15.0129 7.91C15.1529 7.93 15.2929 7.92667 15.4329 7.9ZM21.9345 10.8C21.9345 10.5 22.0212 10.25 22.1945 10.05C22.3745 9.85 22.6145 9.69333 22.9145 9.58C23.2145 9.46 23.5678 9.37667 23.9745 9.33C24.3812 9.28333 24.8145 9.26 25.2745 9.26C25.7345 9.26 26.1678 9.27667 26.5745 9.31C26.9812 9.34333 27.3345 9.41667 27.6345 9.53C27.9345 9.63667 28.1712 9.79 28.3445 9.99C28.5245 10.19 28.6145 10.46 28.6145 10.8C28.6145 11.1333 28.5245 11.4 28.3445 11.6C28.1712 11.8 27.9345 11.9533 27.6345 12.06C27.3345 12.1733 26.9812 12.2467 26.5745 12.28C26.1678 12.32 25.7345 12.34 25.2745 12.34C24.8145 12.34 24.3812 12.32 23.9745 12.28C23.5678 12.2467 23.2145 12.1733 22.9145 12.06C22.6145 11.9533 22.3745 11.8 22.1945 11.6C22.0212 11.4 21.9345 11.1333 21.9345 10.8ZM24.4845 5.53C24.4845 5.53 24.4812 5.57 24.4745 5.65C24.4745 5.73 24.4745 5.82 24.4745 5.92C24.4745 6.02 24.4745 6.11333 24.4745 6.2C24.4812 6.28667 24.4845 6.33667 24.4845 6.35C24.5178 6.38333 24.5778 6.44 24.6645 6.52C24.7512 6.59333 24.8245 6.65667 24.8845 6.71C24.9512 6.76333 25.0178 6.82333 25.0845 6.89C25.1578 6.95 25.2312 7.01667 25.3045 7.09C25.3512 7.13667 25.3945 7.18333 25.4345 7.23C25.4745 7.27 25.5112 7.30667 25.5445 7.34C25.6712 7.46667 25.7978 7.60333 25.9245 7.75C26.0512 7.89667 26.1378 8.04667 26.1845 8.2C26.2045 8.26 26.2078 8.32667 26.1945 8.4C26.1812 8.47333 26.1378 8.53667 26.0645 8.59C25.9512 8.65667 25.8312 8.69 25.7045 8.69C25.5578 8.69 25.4178 8.66 25.2845 8.6C25.1512 8.54 25.0445 8.48 24.9645 8.42C24.8378 8.32667 24.7212 8.23 24.6145 8.13C24.5078 8.02333 24.4012 7.91667 24.2945 7.81C24.2212 7.73667 24.1378 7.65333 24.0445 7.56C23.9512 7.46 23.8578 7.37333 23.7645 7.3L23.4945 7.57C23.4478 7.61667 23.4012 7.66333 23.3545 7.71C23.3078 7.75 23.2645 7.79333 23.2245 7.84C23.1378 7.93333 23.0478 8.03 22.9545 8.13C22.8612 8.22333 22.7545 8.31333 22.6345 8.4C22.3612 8.6 22.1045 8.7 21.8645 8.7C21.8312 8.7 21.8012 8.7 21.7745 8.7C21.7545 8.7 21.7278 8.69333 21.6945 8.68C21.5478 8.64667 21.4512 8.58667 21.4045 8.5C21.3578 8.42667 21.3412 8.34333 21.3545 8.25C21.3745 8.15667 21.4045 8.07333 21.4445 8C21.4978 7.92667 21.5578 7.85667 21.6245 7.79C21.6912 7.71667 21.7578 7.64333 21.8245 7.57C21.8845 7.50333 21.9778 7.41 22.1045 7.29C22.2378 7.16333 22.3712 7.03667 22.5045 6.91C22.6378 6.77667 22.7612 6.65667 22.8745 6.55C22.9878 6.44333 23.0578 6.37667 23.0845 6.35V5.53H22.4445C22.3645 5.53 22.2712 5.53333 22.1645 5.54C22.0578 5.54 21.9512 5.53333 21.8445 5.52C21.7445 5.50667 21.6512 5.48 21.5645 5.44C21.4778 5.39333 21.4145 5.32 21.3745 5.22C21.3412 5.14667 21.3178 5.06333 21.3045 4.97C21.2978 4.87667 21.3045 4.79 21.3245 4.71C21.3512 4.61667 21.4112 4.55333 21.5045 4.52C21.5978 4.48 21.6878 4.45333 21.7745 4.44C21.7878 4.44 21.8412 4.44 21.9345 4.44C22.0345 4.44 22.1412 4.44 22.2545 4.44C22.3678 4.44 22.4745 4.44 22.5745 4.44C22.6745 4.44 22.7345 4.43667 22.7545 4.43H25.0945C25.3612 4.43 25.5845 4.44667 25.7645 4.48C25.9512 4.51333 26.1012 4.59667 26.2145 4.73C26.2478 4.77 26.2678 4.82333 26.2745 4.89C26.2878 4.95667 26.2878 5.02667 26.2745 5.1C26.2678 5.16667 26.2478 5.23 26.2145 5.29C26.1878 5.35 26.1478 5.39333 26.0945 5.42C26.0412 5.44 25.9778 5.46333 25.9045 5.49C25.8312 5.51 25.7678 5.52333 25.7145 5.53C25.6212 5.53667 25.5245 5.54 25.4245 5.54C25.3312 5.53333 25.2378 5.53 25.1445 5.53H24.4845ZM26.7445 7.22C26.5512 7.20667 26.3778 7.19667 26.2245 7.19C26.0712 7.17667 25.9512 7.10333 25.8645 6.97C25.8245 6.90333 25.8045 6.81667 25.8045 6.71C25.8045 6.60333 25.8112 6.51333 25.8245 6.44C25.8445 6.36667 25.8812 6.30667 25.9345 6.26C25.9878 6.20667 26.0812 6.16333 26.2145 6.13C26.2412 6.12333 26.3045 6.12 26.4045 6.12C26.5112 6.11333 26.6245 6.11 26.7445 6.11C26.8645 6.10333 26.9778 6.1 27.0845 6.1C27.1912 6.09333 27.2578 6.09 27.2845 6.09V5.14C27.2778 5.06667 27.2745 4.99333 27.2745 4.92C27.2812 4.84667 27.2945 4.77333 27.3145 4.7C27.3278 4.64667 27.3412 4.59667 27.3545 4.55C27.3678 4.50333 27.3978 4.45333 27.4445 4.4C27.4978 4.33333 27.5712 4.28667 27.6645 4.26C27.7645 4.23333 27.8712 4.22667 27.9845 4.24C28.0845 4.25333 28.1745 4.28333 28.2545 4.33C28.3345 4.37 28.3912 4.42333 28.4245 4.49C28.4645 4.57 28.4878 4.67 28.4945 4.79C28.5078 4.90333 28.5145 4.97333 28.5145 5V8.43H28.5045C28.5045 8.43667 28.5012 8.46 28.4945 8.5C28.4878 8.54 28.4745 8.59 28.4545 8.65C28.4345 8.70333 28.4045 8.76 28.3645 8.82C28.3245 8.88 28.2712 8.93 28.2045 8.97C28.1112 9.02333 28.0078 9.05 27.8945 9.05C27.7812 9.05 27.6712 9.01333 27.5645 8.94C27.4845 8.88667 27.4278 8.82 27.3945 8.74C27.3545 8.66667 27.3278 8.59333 27.3145 8.52C27.3012 8.44667 27.2912 8.37333 27.2845 8.3V7.22H26.7445ZM27.2645 10.8C27.2645 10.6867 27.2045 10.5967 27.0845 10.53C26.9645 10.4633 26.8078 10.4133 26.6145 10.38C26.4278 10.3467 26.2145 10.3267 25.9745 10.32C25.7412 10.3067 25.5078 10.3 25.2745 10.3C25.0412 10.3 24.8078 10.3067 24.5745 10.32C24.3478 10.3267 24.1412 10.3467 23.9545 10.38C23.7745 10.4133 23.6278 10.4633 23.5145 10.53C23.4012 10.5967 23.3445 10.6867 23.3445 10.8C23.3445 10.9 23.4012 10.9833 23.5145 11.05C23.6278 11.1167 23.7745 11.1667 23.9545 11.2C24.1412 11.2333 24.3478 11.2567 24.5745 11.27C24.8078 11.2833 25.0412 11.29 25.2745 11.29C25.5078 11.29 25.7412 11.29 25.9745 11.29C26.2145 11.29 26.4278 11.2767 26.6145 11.25C26.8078 11.2233 26.9645 11.1767 27.0845 11.11C27.2045 11.0367 27.2645 10.9333 27.2645 10.8ZM30.1546 8.51C30.0213 8.51 29.8813 8.49 29.7346 8.45C29.588 8.41 29.488 8.32333 29.4346 8.19C29.4013 8.09667 29.388 7.98333 29.3946 7.85C29.408 7.71667 29.4546 7.61667 29.5346 7.55C29.5813 7.50333 29.638 7.47667 29.7046 7.47C29.7713 7.46333 29.8346 7.46 29.8946 7.46C29.9413 7.46 29.9846 7.46333 30.0246 7.47C30.0713 7.47 30.118 7.47 30.1646 7.47C30.1913 7.47 30.2113 7.47 30.2246 7.47C30.2446 7.47 30.2546 7.45333 30.2546 7.42C30.268 7.34667 30.2713 7.27667 30.2646 7.21C30.258 7.13667 30.2546 7.06333 30.2546 6.99V6.46C30.2546 6.38667 30.2546 6.31333 30.2546 6.24C30.2613 6.16 30.2646 6.08333 30.2646 6.01C30.2646 6.00333 30.2646 5.98667 30.2646 5.96C30.2646 5.92667 30.2646 5.89667 30.2646 5.87C30.2646 5.83667 30.2646 5.80667 30.2646 5.78C30.2646 5.75333 30.2646 5.74 30.2646 5.74C30.2113 5.74 30.158 5.74 30.1046 5.74C30.058 5.73333 30.008 5.72667 29.9546 5.72C29.828 5.70667 29.7246 5.67333 29.6446 5.62C29.5646 5.56 29.5113 5.46333 29.4846 5.33C29.4713 5.26333 29.4646 5.19667 29.4646 5.13C29.4646 5.05667 29.4813 4.98667 29.5146 4.92C29.568 4.82 29.6546 4.75333 29.7746 4.72C29.8613 4.68667 29.948 4.67667 30.0346 4.69C30.1213 4.69667 30.208 4.69667 30.2946 4.69C30.408 4.68333 30.5146 4.68 30.6146 4.68C30.7213 4.67333 30.8313 4.67 30.9446 4.67C31.0713 4.66333 31.1946 4.66 31.3146 4.66C31.4413 4.66 31.5713 4.66 31.7046 4.66H33.3746C33.468 4.66 33.558 4.66667 33.6446 4.68C33.738 4.68667 33.828 4.70667 33.9146 4.74C34.0613 4.78667 34.1613 4.88667 34.2146 5.04C34.2613 5.14 34.2746 5.24333 34.2546 5.35C34.2346 5.45 34.178 5.53 34.0846 5.59C33.9646 5.67 33.8313 5.70667 33.6846 5.7C33.5446 5.69333 33.408 5.69667 33.2746 5.71C33.2813 5.79667 33.2846 5.91667 33.2846 6.07C33.2913 6.22333 33.298 6.38333 33.3046 6.55C33.3113 6.71667 33.3146 6.88 33.3146 7.04C33.3213 7.2 33.3246 7.33333 33.3246 7.44C33.3913 7.44 33.4646 7.44 33.5446 7.44C33.6246 7.43333 33.7013 7.43333 33.7746 7.44C33.8546 7.44 33.928 7.45 33.9946 7.47C34.068 7.48333 34.1346 7.51333 34.1946 7.56C34.288 7.63333 34.3346 7.74667 34.3346 7.9C34.3346 8.05333 34.298 8.18 34.2246 8.28C34.1646 8.35333 34.0946 8.40667 34.0146 8.44C33.9413 8.46667 33.8613 8.48667 33.7746 8.5C33.6946 8.51333 33.6113 8.52 33.5246 8.52C33.438 8.51333 33.3546 8.51 33.2746 8.51H30.1546ZM31.3446 12.27C31.0713 12.27 30.8513 12.21 30.6846 12.09C30.518 11.9767 30.4346 11.8433 30.4346 11.69V10.25C30.4213 10.1033 30.4213 9.95333 30.4346 9.8C30.448 9.66 30.5013 9.54667 30.5946 9.46C30.6946 9.37333 30.8213 9.33 30.9746 9.33C31.008 9.33 31.068 9.33333 31.1546 9.34C31.2413 9.34 31.3013 9.34667 31.3346 9.36C31.4213 9.38667 31.488 9.42667 31.5346 9.48C31.588 9.53333 31.628 9.59667 31.6546 9.67C31.6813 9.73667 31.698 9.81 31.7046 9.89C31.7113 9.96333 31.718 10.0367 31.7246 10.11C31.7246 10.1367 31.7246 10.2 31.7246 10.3C31.7313 10.3933 31.7346 10.4967 31.7346 10.61C31.7413 10.7167 31.7446 10.8167 31.7446 10.91C31.7513 11.0033 31.758 11.06 31.7646 11.08C31.7846 11.0867 31.838 11.0967 31.9246 11.11C32.018 11.1167 32.188 11.12 32.4346 11.12C32.648 11.12 32.778 11.1167 32.8246 11.11C32.878 11.1033 32.908 11.1 32.9146 11.1H36.1846C36.1846 11.1 36.2046 11.1067 36.2446 11.12C36.2913 11.1333 36.3413 11.1567 36.3946 11.19C36.448 11.2167 36.498 11.2567 36.5446 11.31C36.5913 11.3567 36.6213 11.4133 36.6346 11.48C36.668 11.7333 36.6246 11.93 36.5046 12.07C36.4246 12.1633 36.338 12.22 36.2446 12.24C36.1513 12.26 36.1013 12.27 36.0946 12.27H31.3446ZM36.4246 7.36V8.27C36.418 8.34333 36.408 8.42 36.3946 8.5C36.3813 8.57333 36.3546 8.64667 36.3146 8.72C36.268 8.80667 36.2113 8.87 36.1446 8.91C36.038 8.98333 35.928 9.02 35.8146 9.02C35.7146 9.02 35.6213 8.99333 35.5346 8.94C35.468 8.9 35.4146 8.85 35.3746 8.79C35.3346 8.73 35.3013 8.67333 35.2746 8.62C35.2546 8.56667 35.2413 8.52 35.2346 8.48C35.228 8.43333 35.2246 8.41 35.2246 8.41V5.11C35.2246 5.07667 35.228 5.00333 35.2346 4.89C35.248 4.77 35.2746 4.67 35.3146 4.59C35.3813 4.45 35.518 4.37 35.7246 4.35C35.838 4.33667 35.9413 4.34333 36.0346 4.37C36.1346 4.39667 36.2113 4.44 36.2646 4.5C36.3046 4.55333 36.3313 4.60667 36.3446 4.66C36.3646 4.70667 36.3813 4.75667 36.3946 4.81C36.4146 4.87667 36.4246 4.94667 36.4246 5.02C36.4313 5.09333 36.4313 5.16667 36.4246 5.24V6.24C36.4513 6.24 36.5013 6.24333 36.5746 6.25C36.648 6.25667 36.7246 6.26333 36.8046 6.27C36.8913 6.27 36.9713 6.27333 37.0446 6.28C37.118 6.28667 37.168 6.29333 37.1946 6.3C37.328 6.32667 37.4213 6.36667 37.4746 6.42C37.528 6.46667 37.5646 6.52667 37.5846 6.6C37.598 6.67333 37.6046 6.76 37.6046 6.86C37.6046 6.95333 37.5846 7.03333 37.5446 7.1C37.4646 7.23333 37.3446 7.31 37.1846 7.33C37.0246 7.35 36.848 7.36 36.6546 7.36H36.4246ZM32.2246 7.35C32.2313 7.31 32.2313 7.27 32.2246 7.23C32.2246 7.18333 32.228 7.14 32.2346 7.1V6.48C32.2346 6.38667 32.2346 6.29667 32.2346 6.21C32.2346 6.11667 32.2313 6.02333 32.2246 5.93C32.2246 5.88333 32.218 5.84333 32.2046 5.81C32.198 5.77667 32.1713 5.75 32.1246 5.73C32.0846 5.71667 32.0413 5.71 31.9946 5.71C31.948 5.71 31.9013 5.71 31.8546 5.71C31.7946 5.71 31.7346 5.71 31.6746 5.71C31.6146 5.71 31.558 5.71333 31.5046 5.72C31.478 5.72667 31.4546 5.73 31.4346 5.73C31.4146 5.72333 31.3946 5.72667 31.3746 5.74C31.3213 5.76667 31.2913 5.80667 31.2846 5.86C31.278 5.91333 31.2813 5.96333 31.2946 6.01C31.3013 6.06333 31.3013 6.12 31.2946 6.18C31.2946 6.23333 31.2946 6.28667 31.2946 6.34V7.19C31.2946 7.23 31.2913 7.27333 31.2846 7.32C31.2846 7.36 31.3013 7.39667 31.3346 7.43C31.368 7.46333 31.408 7.47333 31.4546 7.46C31.5346 7.46 31.6146 7.46333 31.6946 7.47C31.7746 7.47 31.8546 7.46333 31.9346 7.45C31.968 7.45 31.998 7.45333 32.0246 7.46C32.058 7.46 32.0913 7.45667 32.1246 7.45C32.1646 7.44333 32.1913 7.43667 32.2046 7.43C32.218 7.41667 32.2246 7.39 32.2246 7.35ZM38.4779 4.63C38.5313 4.54333 38.6046 4.48 38.6979 4.44C38.7913 4.4 38.8813 4.38 38.9679 4.38C39.0413 4.38 39.1113 4.38333 39.1779 4.39C39.2513 4.39 39.3213 4.39667 39.3879 4.41C39.5279 4.45 39.6279 4.54 39.6879 4.68C39.7479 4.81333 39.7846 4.97 39.7979 5.15C39.8179 5.32333 39.8213 5.49667 39.8079 5.67C39.8013 5.84333 39.7979 5.98333 39.7979 6.09V9.04C39.7979 9.17333 39.7979 9.30667 39.7979 9.44C39.7979 9.57333 39.7746 9.7 39.7279 9.82C39.6813 9.93333 39.5946 10.0167 39.4679 10.07C39.3413 10.1233 39.2079 10.15 39.0679 10.15C38.9279 10.1433 38.7946 10.1133 38.6679 10.06C38.5413 10 38.4546 9.91667 38.4079 9.81C38.3879 9.75 38.3713 9.67667 38.3579 9.59C38.3513 9.49667 38.3446 9.41333 38.3379 9.34C38.3313 9.22667 38.3279 9.11 38.3279 8.99C38.3346 8.86333 38.3379 8.73667 38.3379 8.61V5.26C38.3379 5.18 38.3479 5.07667 38.3679 4.95C38.3879 4.82333 38.4246 4.71667 38.4779 4.63ZM39.6279 11.06C39.6479 11.0933 39.6646 11.1267 39.6779 11.16C39.6979 11.1867 39.7146 11.22 39.7279 11.26C39.7479 11.3333 39.7613 11.41 39.7679 11.49C39.7746 11.57 39.7679 11.65 39.7479 11.73C39.7279 11.8033 39.6946 11.8733 39.6479 11.94C39.6013 12.0067 39.5379 12.0567 39.4579 12.09C39.3846 12.1233 39.2979 12.1433 39.1979 12.15C39.0979 12.1567 39.0013 12.15 38.9079 12.13C38.8146 12.11 38.7279 12.0733 38.6479 12.02C38.5679 11.9667 38.5113 11.8967 38.4779 11.81C38.4446 11.7167 38.4246 11.61 38.4179 11.49C38.4179 11.3633 38.4346 11.2533 38.4679 11.16C38.5079 11.06 38.5713 10.9933 38.6579 10.96C38.7446 10.92 38.8379 10.9 38.9379 10.9C39.0646 10.8933 39.1879 10.8967 39.3079 10.91C39.4346 10.9233 39.5413 10.9733 39.6279 11.06Z" fill="white"/>
</svg>
