<svg width="26" height="26" viewBox="0 0 26 26" fill="none" xmlns="http://www.w3.org/2000/svg">
<path d="M13.118 4.52563C8.36136 4.52563 4.52539 7.84558 4.52539 11.876C4.52539 14.4922 6.12116 16.783 8.5148 18.091L7.70465 21.3646C7.68937 21.4136 7.68702 21.4663 7.69786 21.5167C7.7087 21.5671 7.7323 21.6133 7.76602 21.65C7.81519 21.697 7.87845 21.7229 7.94401 21.7231C7.99837 21.7183 8.04994 21.6951 8.09131 21.6567L11.5774 19.1136C12.092 19.1905 12.6108 19.2303 13.1302 19.2331C17.8807 19.2331 21.7228 15.9131 21.7228 11.876C21.7228 7.83894 17.8684 4.52563 13.118 4.52563Z" fill="#423630"/>
</svg>
