<?xml version="1.0" encoding="UTF-8"?>
<svg id="Layer_2" data-name="Layer 2" xmlns="http://www.w3.org/2000/svg" viewBox="0 0 36.41 38">
  <defs>
    <style>
      .cls-1 {
        fill: none;
        stroke: #000;
        stroke-miterlimit: 10;
        stroke-width: 2px;
      }
    </style>
  </defs>
  <g id="Layer_7" data-name="Layer 7">
    <polygon class="cls-1" points="9.2 9 13.2 6 15.2 1 21.2 1 23.2 6 26.2 9 32.2 8 35.2 13 32.2 17 32.2 21 35.2 24.82 32.2 31 26.2 30 23.2 32 21.2 37 14.96 37 13.2 32 9.2 30 4.2 31 1.2 26 4.2 22 4.2 17 1.2 13 4.2 8 9.2 9"/>
    <path class="cls-1" d="M18.23,14.06s-5.28,0-5.28,4.97,5.28,4.97,5.28,4.97c0,0,4.97,0,4.97-4.97s-4.97-4.97-4.97-4.97Z"/>
  </g>
</svg>